<svg xmlns="http://www.w3.org/2000/svg" xmlns:xlink="http://www.w3.org/1999/xlink" width="800" height="650" xmlns:v="https://vecta.io/nano"><style><![CDATA[.B{fill:#cc8b09}.C{fill:#f9cb07}.D{fill:#dd990e}.E{fill:#e8a30a}.F{fill:#e9eaf4}.G{fill:#f9ca06}.H{opacity:.4}.I{fill:#d6d8e5}.J{fill:#f5a340}.K{fill:#d5d6e0}.L{fill:#dfe0ea}.M{fill:#dc943c}.N{fill:#e5e5e5}.O{fill:#f4f4f4}.P{fill:#ffcea9}]]></style><defs><linearGradient id="A" x1="-2.027" y1="2.419" x2="-2.024" y2="2.417"><stop offset="0" stop-color="#e9eaf4"/><stop offset=".04" stop-color="#dedfe9"/><stop offset=".1" stop-color="#d7d8e2"/><stop offset=".27" stop-color="#d5d6e0"/></linearGradient><linearGradient id="B" x1="-2.414" y1="2.278" x2="-2.412" y2="2.276" xlink:href="#A"/><linearGradient id="C" x1="-2.822" y1="2.132" x2="-2.819" y2="2.13" xlink:href="#A"/><clipPath id="D"><path d="M0 0h800v650H0z"/></clipPath><path id="E" d="M128.166 480.245l45.886 26.455a1.627 1.627 0 0 1 .8 1.454v38.062l-47.821-27.648v-37.814a.757.757 0 0 1 .713-.742.931.931 0 0 1 .422.233z"/></defs><g clip-path="url(#D)"><g transform="translate(.147 -70.322)"><g class="I"><path d="M370.716 479.954h0l-164.594 95.017-94.929 54.817 2.109 1.207 94.929-54.816L372.8 481.162h.014zm305.677 116.862l-30.223-17.467-64.721-37.364-99.86-57.657 2.08-1.207 99.874 57.658 64.736 37.363 30.221 17.453zM362.632 408.005l-2.109 1.207-94.944-54.8-36.608-21.147-94.944-54.818 2.094-1.222 94.959 54.815 36.62 21.147z" class="H"/><path d="M178.3 360.082l-81.245-46.906c-3.781-2.181-3.315-6.007 1.062-8.523l79.121-45.683c4.363-2.516 10.966-2.792 14.762-.611l81.243 46.9c3.781 2.182 3.3 6.007-1.062 8.523l-79.121 45.747c-4.377 2.458-10.979 2.734-14.76.553z" class="H"/></g><path d="M281.606,299.9l-3.985,1.222-79.79-46.061c-3.781-2.181-10.4-1.92-14.762.611l-79.121,45.683-.189.131-3.374-1.062v5.236a2.574,2.574,0,0,0,0,.582v.436h0a4.554,4.554,0,0,0,2.486,3.215l81.244,46.9c3.782,2.182,10.4,1.9,14.763-.611L278,310.5a6.222,6.222,0,0,0,3.577-4.567h0Z" class="K"/><path d="M278.029 304.945l-46.95 27.11-2.109 1.208-30.078 17.365c-4.363 2.517-10.966 2.793-14.762.612l-81.242-46.907c-3.781-2.2-3.3-5.992 1.062-8.523l30.079-17.365 2.094-1.222 46.95-27.077c4.363-2.545 10.98-2.807 14.762-.625l81.24 46.9c3.783 2.179 3.317 6.007-1.046 8.524z" class="F"/><ellipse cx="185.891" cy="301.105" rx="52.926" ry="30.557" opacity=".05"/><path d="M242.485,297.73V284.074L240.3,288.96c-2.429-4.712-6.865-9.148-13.308-12.871-20.682-11.941-54.191-11.941-74.859,0a33.448,33.448,0,0,0-12.9,12.174l-2.607-3.433v12.959h0c0,7.8,5.192,15.591,15.5,21.54,20.664,11.926,54.177,11.926,74.859,0,10.3-5.934,15.46-13.73,15.489-21.526h0Z" class="D"/><ellipse cx="189.556" cy="284.611" rx="52.926" ry="30.557" class="C"/><path d="M227.385 285.921c-.509 5.163-4.189 10.181-11.01 14.165-14.8 8.538-38.8 8.538-53.594 0-6.822-3.927-10.516-9-11.025-14.165-.625-6.021 3.055-12.174 11.025-16.785 14.791-8.537 38.789-8.537 53.594 0 7.942 4.582 11.625 10.764 11.01 16.785z" class="B"/><path d="M227.386 285.921c-.509 5.163-4.189 10.181-11.01 14.165-14.805 8.538-38.8 8.538-53.6 0-6.821-3.927-10.515-9-11.024-14.165.509-5.147 4.2-10.181 11.024-14.152 14.791-8.551 38.79-8.551 53.6 0 6.795 3.931 10.472 9.003 11.01 14.152z" class="E"/><path d="M204.362 290.458a27.862 27.862 0 0 0 2.706-1.92 10.721 10.721 0 0 0 1.789-1.861 3.8 3.8 0 0 0 .8-1.862 2.912 2.912 0 0 0-.509-1.832 7.088 7.088 0 0 0-1.9-1.877 10.872 10.872 0 0 0-5.367-2.021 14.3 14.3 0 0 0-5.745.858q1.454-2.676-2.618-4.639a10.352 10.352 0 0 0-3.128-.932 11.035 11.035 0 0 0-3.316 0 19.3 19.3 0 0 0-3.272.815 33.37 33.37 0 0 0-3.359 1.455l-4.592-2.647.4-.159h-.655l-.349-.2-.349.2h-2.772v1.644l5.062 2.909-2.473 1.454-5.1-2.909-.814.466-2.487-.262v1.629l5.206 3.008-1.979 1.164-1.833 1.047-2.534-.087v1.644l3.389 1.949 2.3-1.323a3.607 3.607 0 0 1 3.246-.248l5.934 3.418.349-.174-.334.189 8.319 4.8c.567.465.539.887-.116 1.28l-2.327-.29v1.643l3.145 2.543 4.13-2.385 1.149-.655 1.134-.625 5.265 3.039 3.186-1.847v-1.629l-1.455.815-3.8-2.181 2.545-1.455 5.192 3 3.186-1.833v-1.643h-2.909zm-17.914-5.818l-.96.555-.727.407-6.341-3.665.8-.48 1.109-.655 1.25-.669a14.261 14.261 0 0 1 1.455-.64 12.929 12.929 0 0 1 1.454-.45 7.267 7.267 0 0 1 1.571-.247 6.779 6.779 0 0 1 1.455.146 4.68 4.68 0 0 1 1.454.538 2.818 2.818 0 0 1 .871.728.991.991 0 0 1 .233.771 2.755 2.755 0 0 1-.2.771 2.345 2.345 0 0 1-.625.8q-.466.436-.829.742a8.5 8.5 0 0 1-1.03.727zm14.864 2.008a5.309 5.309 0 0 1-.538.814 7.82 7.82 0 0 1-.859.829q-.538.452-1 .786l-1.134.741-1.062.655-1 .567-.771.436-7-4.043.96-.582 1.324-.771 1.454-.8a14.926 14.926 0 0 1 1.717-.771l1.73-.567a9.417 9.417 0 0 1 1.833-.317 7.645 7.645 0 0 1 1.7.117 4.8 4.8 0 0 1 1.643.582 2.706 2.706 0 0 1 .858.727 1.534 1.534 0 0 1 .317.756 1.454 1.454 0 0 1-.174.9z" class="B"/><path d="M201.876 277.455a13.8 13.8 0 0 0-5.745.859q1.454-2.676-2.618-4.654a10.331 10.331 0 0 0-3.128-.916 11.516 11.516 0 0 0-3.316 0 20.6 20.6 0 0 0-3.272.815 33.142 33.142 0 0 0-3.359 1.454l-5.207-3-3.114 1.817 5.062 2.909-2.473 1.454-5.1-2.909-3.3 1.848 5.206 3-1.979 1.178-4.363 2.516 3.388 1.963 2.3-1.324a3.565 3.565 0 0 1 3.246-.262l5.934 3.433a1.305 1.305 0 0 1 .35-.175l-.335.19 8.319 4.8c.582.466.539.9-.145 1.295l-2.3 1.323 3.141 2.56 4.131-2.385 1.148-.655 1.135-.64 5.265 3.04 3.185-1.833-5.206-3.009 2.545-1.454 5.192 3 3.186-1.847-5.28-3.04a27.987 27.987 0 0 0 2.706-1.92 9.737 9.737 0 0 0 1.789-1.861 3.759 3.759 0 0 0 .8-1.847 2.907 2.907 0 0 0-.51-1.833 6.9 6.9 0 0 0-1.9-1.891 10.726 10.726 0 0 0-5.368-1.993zm-23.46 2.909l.8-.479 1.109-.655a22.171 22.171 0 0 1 2.705-1.3 12.758 12.758 0 0 1 1.455-.465 7.244 7.244 0 0 1 1.57-.233 6.706 6.706 0 0 1 1.455.131 4.694 4.694 0 0 1 1.454.554 2.79 2.79 0 0 1 .871.712 1.05 1.05 0 0 1 .233.786 2.657 2.657 0 0 1-.2.756 2.346 2.346 0 0 1-.625.8l-.829.756a10.824 10.824 0 0 1-1.029.712l-.989.626c-.219.145-.539.316-.96.554l-.727.407-6.341-3.665zm22.791 3.1a1.6 1.6 0 0 1 .316.772 1.449 1.449 0 0 1-.2.828 5.207 5.207 0 0 1-.539.815 7.727 7.727 0 0 1-.858.829q-.539.45-1 .786-.461.336-1.134.741l-1.062.655-1 .567-.771.436-7-4.028.96-.582 1.324-.785q.509-.306 1.454-.786l1.716-.785a17.245 17.245 0 0 1 1.731-.554 8.32 8.32 0 0 1 1.833-.317 6.83 6.83 0 0 1 1.7.1 5.141 5.141 0 0 1 1.644.582 2.921 2.921 0 0 1 .886.724z" class="G"/><path d="M243.067,278.576V264.992l-2.181,4.887c-2.429-4.713-6.865-9.163-13.308-12.872-20.682-11.941-54.191-11.941-74.859,0a33.462,33.462,0,0,0-12.9,12.142l-2.6-3.5V278.62h0c0,7.8,5.192,15.577,15.5,21.526,20.664,11.941,54.177,11.941,74.859,0,10.3-5.948,15.46-13.73,15.489-21.526h0Z" class="D"/><ellipse cx="190.138" cy="265.457" rx="52.926" ry="30.557" class="C"/><path d="M227.938 266.766c-.509 5.147-4.189 10.181-11.01 14.166-14.8 8.537-38.8 8.537-53.6 0-6.821-3.941-10.515-9.017-11.024-14.166-.625-6.021 3.055-12.188 11.024-16.785 14.791-8.55 38.79-8.55 53.6 0 7.972 4.597 11.65 10.764 11.01 16.785z" class="B"/><path d="M227.936 266.766c-.509 5.147-4.189 10.181-11.01 14.166-14.806 8.537-38.8 8.537-53.6 0-6.822-3.941-10.515-9.017-11.024-14.166.509-5.146 4.2-10.181 11.024-14.151 14.791-8.551 38.789-8.551 53.6 0 6.824 3.927 10.46 9.003 11.01 14.151z" class="E"/><path d="M446.842 237.358v150.023c0 3.985-1.455 6.632-3.767 7.418l-121.938 70.116-2.5 1.455-3.52-17.846-12.1-61.564-21.658-109.794 124.54-71.6c1.6-1.251 3.825-1.324 6.283.087l25.961 15a17.694 17.694 0 0 1 6.544 7.738 21.133 21.133 0 0 1 2.153 8.973z" class="F"/><path d="M446.843 237.357V387.38c0 3.985-1.455 6.632-3.768 7.418l-121.938 70.117-6.021-16.4-15.693-45.087c.131-.262 1.527-6.822 3.549-16.522l18.2-88.72 123.48-69.911a21.142 21.142 0 0 1 2.2 9.09z" fill="url(#A)"/><path d="M315.043 291.431l-25.961-14.98a5.543 5.543 0 0 0-5.672-.48h0l-2.472 1.352.554.64a10.359 10.359 0 0 0-1.164 5.119v149.981c0 6.458 3.927 13.948 8.726 16.741l25.961 14.98c4.843 2.793 8.727-.174 8.727-6.617V308.173c.071-6.458-3.856-13.948-8.699-16.742z" fill="#fff"/><path d="M312.411 466.239l-25.961-14.994c-4.843-2.793-8.727-10.283-8.727-16.726V284.51c0-6.443 3.912-9.41 8.727-6.617l25.961 14.98c4.829 2.792 8.726 10.3 8.726 16.74v149.994c.029 6.457-3.898 9.425-8.726 6.632z" class="L"/><path d="M309.546 316.9v122.011c0 3.548-1.658 5.614-4.014 5.454a5.443 5.443 0 0 1-2.24-.727l-7.723-4.465c-3.462-1.993-6.255-7.272-6.255-11.955v-122c0-4.61 2.793-6.72 6.255-4.727l.363.219 7.363 4.247c3.444 1.996 6.251 7.332 6.251 11.943z" class="M"/><path d="M309.545 316.9v122.011c0 3.548-1.658 5.614-4.014 5.454l-7.272-4.232c-3.447-1.993-6.259-7.273-6.259-11.941V306.18c0-3.534 1.673-5.614 3.985-5.468l7.363 4.247c3.391 1.993 6.197 7.33 6.197 11.941z" class="J"/><path d="M503.914 270.708v150.008c0 4-1.454 6.632-3.781 7.432L378.2 498.251l-2.487 1.454-3.55-17.829-12.113-61.565-21.658-109.8 33.886-19.489 1.338-.771 5.146-2.909 41.038-23.59.756-.436 2.5-1.455L463 238.9c1.584-1.251 3.811-1.323 6.268.087l25.961 14.995a17.865 17.865 0 0 1 6.56 7.752 21.3 21.3 0 0 1 2.125 8.974z" class="F"/><path d="M503.913 270.708v150.008c0 3.985-1.454 6.632-3.781 7.418l-121.938 70.117-6.022-16.406-15.693-45.087c.131-.247 1.528-6.809 3.549-16.522l18.195-88.719 123.495-69.9a21.23 21.23 0 0 1 2.195 9.091z" fill="url(#B)"/><path d="M372.114 324.768l-25.961-14.976a5.626 5.626 0 0 0-5.687-.48h0l-2.455 1.352.539.64a10.36 10.36 0 0 0-1.164 5.119V466.4c0 6.457 3.927 13.948 8.726 16.74l25.961 14.995c4.83 2.792 8.727-.174 8.727-6.632V341.508c.07-6.46-3.857-13.977-8.686-16.74z" fill="#fff"/><path d="M378.208 342.949v150.008c0 6.443-3.9 9.41-8.727 6.6l-14.8-8.537-2.681-1.539-8.508-4.872c-4.814-2.778-8.727-10.268-8.727-16.74V317.86c0-6.472 3.942-9.41 8.727-6.632l25.961 14.98c4.829 2.778 8.755 10.282 8.755 16.741z" class="L"/><path d="M366.6 350.248v122c0 3.549-1.658 5.614-4.015 5.454a5.232 5.232 0 0 1-2.239-.727l-7.723-4.466c-3.461-1.992-6.255-7.345-6.255-11.955v-122c0-4.61 2.793-6.719 6.255-4.727l.378.219 7.273 4.247c3.536 1.994 6.326 7.346 6.326 11.955z" class="M"/><path d="M366.6 350.249v122c0 3.549-1.658 5.614-4.015 5.454l-7.272-4.232c-3.461-1.993-6.268-7.272-6.268-11.941v-122c0-3.549 1.673-5.629 4-5.483l7.272 4.247c3.496 1.993 6.283 7.345 6.283 11.955z" class="J"/><path d="M563.865 305.394v149.995c0 3.984-1.454 6.632-3.767 7.432l-121.938 70.1-2.5 1.454-3.535-17.772-12.13-61.566-21.657-109.791 124.54-71.6c1.583-1.251 3.81-1.324 6.268.087l25.961 14.994a17.673 17.673 0 0 1 6.559 7.752 21.04 21.04 0 0 1 2.2 8.916z" class="F"/><path d="M563.864 305.395v149.994c0 3.985-1.454 6.633-3.767 7.432l-121.937 70.1-6.037-16.389-15.676-45.087c.131-.247 1.527-6.809 3.549-16.522l18.179-88.719 123.494-69.9a21.039 21.039 0 0 1 2.2 9.09z" fill="url(#C)"/><path d="M432.066 359.441l-25.961-14.98a5.628 5.628 0 0 0-5.687-.48h0l-2.455 1.352.554.64a10.181 10.181 0 0 0-1.163 5.119v149.995c0 6.443 3.927 13.934 8.726 16.725l25.961 14.995c4.843 2.792 8.727-.174 8.727-6.633V376.182c.053-6.473-3.859-13.948-8.702-16.741z" fill="#fff"/><path d="M429.433 534.248l-25.961-14.995c-4.843-2.792-8.726-10.283-8.726-16.725v-150.01c0-6.443 3.927-9.409 8.726-6.617l25.961 14.999c4.83 2.792 8.727 10.283 8.727 16.725V527.63c.029 6.429-3.898 9.41-8.727 6.618z" class="L"/><path d="M426.641 384.923v122c0 3.549-1.658 5.615-4.014 5.469a5.2 5.2 0 0 1-2.24-.742l-7.738-4.465c-3.447-1.993-6.255-7.272-6.255-11.956v-122c0-4.61 2.807-6.719 6.255-4.726l.379.218 7.363 4.247c3.341 1.992 6.25 7.344 6.25 11.955z" class="M"/><path d="M426.641 384.922v122c0 3.548-1.658 5.614-4.014 5.468l-7.273-4.247c-3.447-1.993-6.254-7.272-6.254-11.941V374.2c0-3.549 1.658-5.628 3.985-5.483l7.363 4.247c3.284 1.992 6.193 7.348 6.193 11.958z" class="J"/><path d="M472.135 191.325c0-30.441-21.377-67.485-47.763-82.713-13.089-7.562-24.973-8.318-33.6-3.428h-.1l-.174.1-11.983 7.024 3.927.814c-4.727 5.818-5.818 12.1-5.818 23.009 0 30.456 21.377 67.485 47.749 82.713 8.319 4.8 16.144 6.865 22.951 6.472l-2.793 4.8 13.236-7.723.7-.4.349-.2h0c8.228-5.102 13.319-15.617 13.319-30.468z" class="D"/><ellipse cx="39.127" cy="67.776" rx="39.127" ry="67.776" transform="matrix(.86701 -.498291 .498291 .86701 345.255 132.315)" class="C"/><path d="M445.649 191.035c0 21.816-15.3 30.63-34.193 19.737-1.164-.684-2.342-1.455-3.491-2.226a.229.229 0 0 1-.116-.087c-17.19-12-30.542-36.506-30.542-56.9 0-21.816 15.315-30.645 34.193-19.75a50.07 50.07 0 0 1 5.818 3.985c16.1 12.481 28.331 35.75 28.331 55.241z" class="B"/><path d="M445.653 191.034c0 21.817-15.3 30.63-34.193 19.737-1.164-.684-2.342-1.455-3.491-2.226a.229.229 0 0 1-.116-.087C391.694 195.994 379.4 172.68 379.4 153.19c0-21.816 15.3-30.645 34.179-19.736 1.266.727 2.516 1.527 3.737 2.4 16.102 12.42 28.337 35.691 28.337 55.18z" class="E"/><g class="I"><path d="M726.963,271.3l-94.93,54.816-45.1,26.034L492,406.971l-2.109-1.208,94.914-54.831,45.1-26.019L724.868,270.1Z" class="H"/><path d="M660.8 354.9L579.558 308c-3.781-2.181-3.316-6.007 1.062-8.523l79.12-45.683c4.364-2.516 10.981-2.792 14.763-.611l81.243 46.9c3.781 2.182 3.316 6.007-1.062 8.523l-79.192 45.684c-4.364 2.519-10.982 2.795-14.692.61z" class="H"/></g><path d="M764.062 294.676l-4 1.221-79.786-46.06c-3.781-2.182-10.384-1.92-14.762.611L586.4 296.129a1.639 1.639 0 0 0-.189.131l-3.374-1.062v5.236a3.766 3.766 0 0 0 0 .582v.436h0a4.638 4.638 0 0 0 2.486 3.215l81.3 46.89c3.8 2.181 10.4 1.9 14.762-.611l79.115-45.683a6.225 6.225 0 0 0 3.6-4.563h0z" class="K"/><path d="M666.619 346.061l-81.3-46.906c-3.781-2.181-3.3-6.007 1.062-8.523l79.12-45.683c4.364-2.516 10.981-2.792 14.763-.611l81.236 46.906c3.8 2.181 3.315 6.006-1.062 8.523l-79.117 45.683c-4.361 2.516-10.964 2.792-14.702.611z" class="F"/><ellipse cx="668.32" cy="295.927" rx="52.926" ry="30.557" opacity=".05"/><path d="M724.926,292.625V278.968l-2.2,4.887c-2.429-4.712-6.865-9.148-13.308-12.871-20.665-11.941-54.191-11.941-74.859,0a33.7,33.7,0,0,0-12.9,12.158l-2.6-3.428v12.915h0c0,7.8,5.207,15.592,15.5,21.54,20.664,11.926,54.191,11.926,74.859,0,10.3-5.934,15.46-13.729,15.5-21.526h0Z" class="D"/><ellipse cx="671.985" cy="279.434" rx="52.926" ry="30.557" class="C"/><path d="M709.8 280.743c-.523 5.163-4.189 10.181-11.024 14.165-14.791 8.538-38.79 8.538-53.595 0-6.822-3.927-10.5-9-11.024-14.165-.626-6.021 3.054-12.174 11.024-16.785 14.8-8.537 38.8-8.537 53.595 0 7.967 4.613 11.665 10.764 11.024 16.785z" class="B"/><path d="M709.8 280.743c-.523 5.163-4.189 10.181-11.024 14.165-14.791 8.538-38.79 8.538-53.595 0-6.822-3.927-10.5-9-11.024-14.165.523-5.147 4.2-10.181 11.024-14.152 14.8-8.55 38.8-8.55 53.595 0 6.836 3.927 10.501 9.003 11.024 14.152z" class="E"/><path d="M686.791 285.353a27.867 27.867 0 0 0 2.706-1.92 10.8 10.8 0 0 0 1.8-1.861 3.9 3.9 0 0 0 .786-1.862 2.916 2.916 0 0 0-.509-1.833 6.873 6.873 0 0 0-1.902-1.877 10.774 10.774 0 0 0-5.352-2.021 14.248 14.248 0 0 0-5.745.858q1.453-2.676-2.633-4.64a10.207 10.207 0 0 0-3.127-.931 11.1 11.1 0 0 0-3.316 0 18.76 18.76 0 0 0-3.258.815 28.111 28.111 0 0 0-3.359 1.454l-4.592-2.646.4-.159h-.669l-.35-.2-.349.2h-2.909v1.644l5.076 2.909-2.487 1.454-5.1-2.909-.814.466-2.371-.262v1.628l5.207 3.009-1.98 1.164-1.833 1.047-2.574-.158v1.644l3.389 1.949 2.3-1.324a3.607 3.607 0 0 1 3.246-.247l5.934 3.418.349-.174-.316.189 8.3 4.8c.582.465.539.887-.1 1.28l-2.342-.291v1.644l3.142 2.545 4.145-2.385 1.148-.655 1.12-.625 5.279 3.039 3.185-1.847v-1.629l-1.454.815-3.8-2.181 2.546-1.455 5.192 3 3.287-1.963v-1.644h-2.836zm-17.9-5.818l-.975.555-.712.407-6.4-3.68.815-.48 1.091-.655 1.251-.669a13.675 13.675 0 0 1 2.909-1.091 7.564 7.564 0 0 1 1.583-.247 6.842 6.842 0 0 1 1.455.146 4.827 4.827 0 0 1 1.454.538 2.9 2.9 0 0 1 .858.727 1 1 0 0 1 .247.771 2.76 2.76 0 0 1-.218.771 2.469 2.469 0 0 1-.612.8l-.843.742a10.121 10.121 0 0 1-1.018.727zm14.864 1.993a4.811 4.811 0 0 1-.554.829 6.8 6.8 0 0 1-.859.829q-.537.451-1 .785l-1.119.742-1.076.655-1 .567-.771.436-6.982-4.043.96-.582 1.309-.771 1.454-.8a13.834 13.834 0 0 1 1.717-.771q.741-.283 1.741-.567a9.079 9.079 0 0 1 1.821-.317 6.964 6.964 0 0 1 1.717.117 4.707 4.707 0 0 1 1.628.582 2.71 2.71 0 0 1 .859.712 1.665 1.665 0 0 1 .316.771 1.446 1.446 0 0 1-.158.815z" class="B"/><path d="M684.319 272.264a13.786 13.786 0 0 0-5.745.858q1.455-2.676-2.632-4.654a10.669 10.669 0 0 0-3.128-.931 12.116 12.116 0 0 0-3.316 0 18.853 18.853 0 0 0-3.258.815 30.706 30.706 0 0 0-3.359 1.455l-5.221-3-3.186 1.832 5.076 2.909-2.487 1.455-5.1-2.909-3.185 1.847 5.207 3-1.98 1.178-4.363 2.516 3.389 1.964 2.3-1.324a3.562 3.562 0 0 1 3.246-.262l5.935 3.434a1.9 1.9 0 0 1 .349-.175l-.317.19 8.305 4.8c.6.466.554.9-.146 1.3l-2.3 1.323 3.142 2.56 4.144-2.385 1.149-.655 1.12-.64 5.279 3.04 3.185-1.833-5.251-3 2.546-1.455 5.192 3 3.185-1.847-5.279-3.039a27.968 27.968 0 0 0 2.705-1.92 9.851 9.851 0 0 0 1.8-1.862 3.854 3.854 0 0 0 .78-1.849 2.908 2.908 0 0 0-.509-1.833 6.7 6.7 0 0 0-1.9-1.89 10.605 10.605 0 0 0-5.367-2.007zm-23.519 2.909l.815-.48 1.091-.655c.291-.174.713-.4 1.251-.654a13.821 13.821 0 0 1 1.454-.64 12.758 12.758 0 0 1 1.455-.466 6.617 6.617 0 0 1 1.583-.232 6.834 6.834 0 0 1 1.455.13 4.9 4.9 0 0 1 1.454.554 2.9 2.9 0 0 1 .858.713 1.058 1.058 0 0 1 .247.785 2.645 2.645 0 0 1-.218.756 2.481 2.481 0 0 1-.611.8l-.844.756a10.148 10.148 0 0 1-1.018.713l-.989.625-.974.554-.713.407zm22.776 3.112a1.606 1.606 0 0 1 .317.771 1.455 1.455 0 0 1-.189.829 5.377 5.377 0 0 1-.555.815 6.789 6.789 0 0 1-.858.829q-.539.45-1 .785l-1.119.742-1.076.655-1 .567-.772.436-6.981-4.043.96-.567 1.308-.786q.523-.3 1.455-.785l1.716-.785a16.641 16.641 0 0 1 1.742-.555 8.155 8.155 0 0 1 1.821-.316 6.9 6.9 0 0 1 1.716.1 5.05 5.05 0 0 1 1.629.582 2.741 2.741 0 0 1 .931.727z" class="G"/><path d="M725.51,273.4V259.727l-2.167,4.9c-2.429-4.713-6.865-9.163-13.308-12.872-20.664-11.941-54.192-11.941-74.858,0a33.693,33.693,0,0,0-12.9,12.145l-2.6-3.432v12.973h0c0,7.8,5.206,15.577,15.5,21.526,20.664,11.941,54.191,11.941,74.858,0,10.3-5.949,15.46-13.73,15.5-21.526h0Z" class="D"/><ellipse cx="672.567" cy="260.279" rx="52.926" ry="30.557" class="C"/><path d="M710.382 261.588c-.523 5.147-4.189 10.181-11.024 14.166-14.791 8.537-38.79 8.537-53.595 0-6.822-3.941-10.5-9.017-11.024-14.166-.626-6.021 3.054-12.188 11.024-16.784 14.8-8.551 38.8-8.551 53.595 0 7.985 4.596 11.665 10.759 11.024 16.784z" class="B"/><path d="M710.382 261.592c-.523 5.147-4.189 10.181-11.024 14.166-14.791 8.537-38.79 8.537-53.595 0-6.822-3.945-10.5-9.019-11.025-14.166.523-5.146 4.2-10.181 11.024-14.151 14.806-8.551 38.8-8.551 53.595 0 6.837 3.923 10.502 8.999 11.025 14.151z" class="E"/><path d="M687.373 266.111a30.671 30.671 0 0 0 2.706-1.9 10.773 10.773 0 0 0 1.8-1.862 3.958 3.958 0 0 0 .786-1.861 2.915 2.915 0 0 0-.509-1.833 6.488 6.488 0 0 0-1.9-1.876 10.512 10.512 0 0 0-5.352-2.022 14.022 14.022 0 0 0-5.745.858q1.453-2.691-2.633-4.639a10.182 10.182 0 0 0-3.126-.931 11.514 11.514 0 0 0-3.316 0 20.063 20.063 0 0 0-3.258.815 28.114 28.114 0 0 0-3.359 1.454l-4.593-2.662.4-.146h-.674l-.349-.2-.349.2h-2.836v1.629l5.076 2.909-2.487 1.454-5.1-2.909-.815.48-2.37-.276v1.644l5.206 3.008-1.979 1.164-1.833 1.048-2.574-.159v1.629l3.389 1.963 2.3-1.324a3.522 3.522 0 0 1 3.246-.247l5.934 3.418.349-.174-.317.189 8.3 4.8c.582.45.538.871-.1 1.267l-2.342-.277v1.629l3.141 2.56 4.145-2.386 1.149-.655 1.119-.639 5.28 3.054 3.185-1.847v-1.648l-1.455.815-3.8-2.2 2.546-1.455 5.192 3 3.185-1.832v-1.644H689.9zm-17.9-5.816l-.975.555-.712.407-6.356-3.535.814-.465 1.091-.669c.291-.174.713-.4 1.251-.655l1.455-.64a12.54 12.54 0 0 1 1.454-.465 7.5 7.5 0 0 1 1.584-.233 6.762 6.762 0 0 1 1.454.131 5.222 5.222 0 0 1 1.454.554 2.921 2.921 0 0 1 .859.712 1.068 1.068 0 0 1 .247.786 2.918 2.918 0 0 1-.219.771 2.667 2.667 0 0 1-.611.8l-.843.741a9.965 9.965 0 0 1-1.018.728zm14.864 2.007a4.72 4.72 0 0 1-.554.815 6.87 6.87 0 0 1-.859.829 12.08 12.08 0 0 1-1 .785l-1.12.757-1.076.639-1 .567-.771.436-6.982-4.028.96-.582 1.309-.785 1.454-.786a16.506 16.506 0 0 1 1.717-.771q.741-.283 1.741-.567a9.078 9.078 0 0 1 1.821-.316 7.714 7.714 0 0 1 1.717.1 4.751 4.751 0 0 1 1.629.6 2.537 2.537 0 0 1 .858.713 1.667 1.667 0 0 1 .317.771 1.452 1.452 0 0 1-.159.887z" class="B"/><path d="M684.9 253.11a14.23 14.23 0 0 0-5.745.858q1.455-2.692-2.633-4.64a10.181 10.181 0 0 0-3.126-.931 11.586 11.586 0 0 0-3.316 0 18.759 18.759 0 0 0-3.258.815 30.807 30.807 0 0 0-3.359 1.454l-5.222-3.008-3.185 1.847 5.076 2.909-2.487 1.454-5.1-2.909-3.185 1.833 5.206 3.009-1.979 1.178-4.363 2.516 3.388 1.949 2.3-1.324a3.611 3.611 0 0 1 3.246-.247l5.935 3.433.349-.19-.317.19 8.3 4.8c.6.48.554.9-.146 1.309l-2.3 1.324 3.141 2.545 4.145-2.385 1.149-.64 1.119-.64 5.28 3.04 3.167-1.848-5.222-3.008 2.546-1.455 5.192 3 3.185-1.833-5.279-3.039a27.973 27.973 0 0 0 2.7-1.92 10.321 10.321 0 0 0 1.8-1.861 3.911 3.911 0 0 0 .785-1.862 2.91 2.91 0 0 0-.509-1.833 6.876 6.876 0 0 0-1.906-1.876 10.77 10.77 0 0 0-5.384-2.007zm-23.474 2.908l.814-.479 1.091-.655 1.251-.669a13.675 13.675 0 0 1 2.909-1.091 7.573 7.573 0 0 1 1.584-.247 7.8 7.8 0 0 1 1.454.146 4.833 4.833 0 0 1 1.454.554 2.71 2.71 0 0 1 .859.712 1.021 1.021 0 0 1 .247.786 2.814 2.814 0 0 1-.219.756 2.487 2.487 0 0 1-.611.8l-.843.742a8.267 8.267 0 0 1-1.018.728l-.989.625-.975.555-.712.407-6.357-3.665zm22.775 3.156a1.539 1.539 0 0 1 .317.771 1.455 1.455 0 0 1-.189.829 5.365 5.365 0 0 1-.554.815 6.8 6.8 0 0 1-.859.829q-.537.45-1 .785l-1.12.742-1.076.655-1 .567-.771.436-6.982-4.043.96-.582 1.309-.771 1.454-.8a13.825 13.825 0 0 1 1.717-.771 16.79 16.79 0 0 1 1.742-.554 9.083 9.083 0 0 1 1.821-.334 7.772 7.772 0 0 1 1.716.116 4.739 4.739 0 0 1 1.629.582 2.57 2.57 0 0 1 .887.727z" class="G"/><path d="M722.789,254.228V240.572l-2.2,4.9c-2.429-4.712-6.865-9.163-13.308-12.886-20.664-11.926-54.191-11.926-74.859,0a33.6,33.6,0,0,0-12.9,12.159l-2.6-3.433v12.974h0c0,7.8,5.206,15.591,15.5,21.54,20.665,11.926,54.177,11.926,74.859,0,10.3-5.949,15.46-13.745,15.5-21.54h0Z" class="D"/><ellipse cx="669.848" cy="241.124" rx="52.926" ry="30.557" class="C"/><path d="M707.648 242.434c-.509 5.146-4.189 10.181-11.01 14.151-14.8 8.551-38.789 8.551-53.595 0-6.821-3.927-10.5-9-11.024-14.151-.625-6.036 3.055-12.188 11.024-16.785 14.806-8.551 38.79-8.551 53.595 0 7.971 4.597 11.65 10.751 11.01 16.785z" class="B"/><path d="M707.648 242.434c-.509 5.146-4.189 10.181-11.01 14.151-14.8 8.551-38.789 8.551-53.595 0-6.821-3.927-10.5-9-11.024-14.151.524-5.163 4.2-10.181 11.024-14.166 14.806-8.537 38.79-8.537 53.595 0 6.821 3.932 10.501 9.003 11.01 14.166z" class="E"/><path d="M641.051 625.046l-81.244-46.9c-3.782-2.182-3.3-5.992 1.061-8.523l79.119-45.741c4.363-2.516 10.981-2.792 14.763-.611l81.245 46.9c3.8 2.2 3.315 6.007-1.062 8.523l-79.121 45.683c-4.363 2.585-11.012 2.851-14.761.669z" class="H I"/><path d="M744.372,564.818l-3.985,1.222L660.6,519.98c-3.782-2.181-10.4-1.9-14.763.611l-79.12,45.683-.19.131-3.374-1.062v5.251a2.447,2.447,0,0,0,0,.567v.436h0a4.553,4.553,0,0,0,2.487,3.215l81.244,46.9c3.781,2.182,10.384,1.9,14.762-.611l79.149-45.7a6.225,6.225,0,0,0,3.578-4.567h0Z" class="K"/><path d="M646.9 616.2l-81.243-46.9c-3.782-2.182-3.316-5.992 1.061-8.523l79.12-45.624c4.363-2.516 10.981-2.793 14.763-.611l81.243 46.9c3.781 2.2 3.3 6.007-1.062 8.523l-79.12 45.683c-4.381 2.475-11.042 2.766-14.762.552z" class="F"/><ellipse cx="648.643" cy="566.07" rx="52.926" ry="30.557" opacity=".05"/><path d="M705.248,562.7V549.039l-2.2,4.9c-2.429-4.727-6.85-9.163-13.308-12.887-20.664-11.926-54.177-11.926-74.859,0a33.712,33.712,0,0,0-12.9,12.159l-2.589-3.432V562.74h0c0,7.795,5.192,15.592,15.489,21.54,20.682,11.926,54.191,11.926,74.859,0,10.311-5.948,15.475-13.745,15.5-21.54h0Z" class="D"/><ellipse cx="652.307" cy="549.577" rx="52.926" ry="30.557" class="C"/><path d="M690.122 550.9c-.523 5.147-4.189 10.181-11.01 14.152-14.8 8.551-38.8 8.551-53.595 0-6.835-3.927-10.515-9-11.024-14.152-.639-6.036 3.055-12.188 11.024-16.8 14.792-8.537 38.79-8.537 53.595 0 7.97 4.612 11.65 10.765 11.01 16.8z" class="B"/><path d="M690.122 550.9c-.523 5.147-4.189 10.181-11.01 14.152-14.8 8.551-38.8 8.551-53.595 0-6.835-3.927-10.515-9-11.024-14.152.509-5.163 4.189-10.181 11.024-14.165 14.792-8.538 38.79-8.538 53.595 0 6.821 3.927 10.488 8.959 11.01 14.165z" class="E"/><path d="M667.128 555.424a26.094 26.094 0 0 0 2.692-1.92 10.289 10.289 0 0 0 1.8-1.862 3.8 3.8 0 0 0 .8-1.861 2.908 2.908 0 0 0-.509-1.833 6.941 6.941 0 0 0-1.92-1.876 10.781 10.781 0 0 0-5.352-2.022 14.042 14.042 0 0 0-5.745.871c1-1.8.131-3.345-2.632-4.654a10.187 10.187 0 0 0-3.113-.931 11.586 11.586 0 0 0-3.316 0 18.619 18.619 0 0 0-3.272.815 32.083 32.083 0 0 0-3.359 1.454l-4.592-2.646.4-.159h-.655l-.349-.2-.349.2h-2.843v1.644l5.062 2.909-2.473 1.454-5.123-2.907-.8.465-2.385-.262v1.625l5.221 3.009-1.993 1.178-1.821 1.029-2.589-.158v1.644l3.4 1.949 2.283-1.324a3.636 3.636 0 0 1 3.258-.247l5.934 3.432a2.175 2.175 0 0 1 .349-.189l-.335.189 8.3 4.8c.582.465.538.887-.1 1.28l-2.327-.291v1.658l3.141 2.56 4.131-2.4 1.149-.639 1.119-.64 5.28 3.039 3.185-1.833v-1.643l-1.455.814-3.781-2.181 2.556-1.456 5.178 3 3.186-1.847v-1.629h-2.909zm-17.919-5.818l-.959.554-.728.407-6.341-3.665.8-.48 1.091-.654c.29-.175.712-.4 1.251-.669a13.814 13.814 0 0 1 1.454-.64c.422-.159.916-.306 1.455-.451a7.32 7.32 0 0 1 1.57-.247 7.8 7.8 0 0 1 1.455.146 4.712 4.712 0 0 1 1.454.554 2.913 2.913 0 0 1 .871.713 1.057 1.057 0 0 1 .233.785 2.641 2.641 0 0 1-.2.756 2.552 2.552 0 0 1-.625.8q-.465.437-.829.742a8.684 8.684 0 0 1-1.029.727zm14.864 2.007a4.5 4.5 0 0 1-.554.815 5.951 5.951 0 0 1-.858.829q-.539.45-1 .785a15.08 15.08 0 0 1-1.119.742l-1.062.655-1 .566-.771.437-7-4.044.96-.567 1.308-.785 1.455-.785a16.309 16.309 0 0 1 1.716-.786 17.772 17.772 0 0 1 1.731-.554 9.3 9.3 0 0 1 1.821-.334 7.771 7.771 0 0 1 1.716.116 4.94 4.94 0 0 1 1.644.582 2.72 2.72 0 0 1 .858.727 1.741 1.741 0 0 1 .317.771 1.594 1.594 0 0 1-.158.888z" class="B"/><path d="M664.641 542.422a14 14 0 0 0-5.745.858c1-1.789.131-3.345-2.632-4.64a10.186 10.186 0 0 0-3.113-.931 11.509 11.509 0 0 0-3.315 0 20.036 20.036 0 0 0-3.273.815 29.36 29.36 0 0 0-3.36 1.454l-5.2-3.011-3.185 1.833 5.061 2.909-2.472 1.455-5.12-2.909-3.187 1.845 5.222 3.008-1.993 1.164-4.363 2.516 3.4 1.964 2.284-1.324a3.593 3.593 0 0 1 3.258-.262l5.934 3.432a1.962 1.962 0 0 1 .349-.174l-.335.189 8.3 4.8c.6.465.555.9-.13 1.294l-2.3 1.324 3.141 2.56 4.131-2.386 1.149-.655 1.119-.639 5.279 3.039 3.186-1.833-5.207-3.008 2.546-1.455 5.178 3 3.185-1.833-5.265-3.054a28.377 28.377 0 0 0 2.692-1.905 10.4 10.4 0 0 0 1.8-1.876 3.762 3.762 0 0 0 .8-1.848 2.912 2.912 0 0 0-.509-1.832 6.579 6.579 0 0 0-1.92-1.877 10.516 10.516 0 0 0-5.4-2.007zm-23.46 2.909l.8-.466 1.091-.669a14.92 14.92 0 0 1 1.251-.655l1.454-.64a13.992 13.992 0 0 1 1.455-.465 7.249 7.249 0 0 1 1.57-.233 6.762 6.762 0 0 1 1.455.131 4.712 4.712 0 0 1 1.454.554 3.169 3.169 0 0 1 .871.713 1.109 1.109 0 0 1 .233.785 2.9 2.9 0 0 1-.2.771 2.716 2.716 0 0 1-.625.8q-.465.437-.829.742a10.725 10.725 0 0 1-1.029.727l-.989.611-.96.555-.726.407-6.341-3.665zm22.776 3.112a1.824 1.824 0 0 1 .317.771 1.463 1.463 0 0 1-.2.829 3.986 3.986 0 0 1-.554.815 5.954 5.954 0 0 1-.858.829q-.539.45-1 .785c-.291.218-.669.465-1.12.742l-1.061.655-1 .566-.771.437-7-4.029.959-.582 1.309-.785 1.455-.785a16.3 16.3 0 0 1 1.716-.772 17.224 17.224 0 0 1 1.731-.566 8.213 8.213 0 0 1 1.821-.317 7.759 7.759 0 0 1 1.716.1 5.255 5.255 0 0 1 1.644.582 2.92 2.92 0 0 1 .9.713z" class="G"/><path d="M705.889,543.541V529.885l-2.2,4.886c-2.429-4.712-6.85-9.148-13.309-12.871-20.664-11.941-54.177-11.941-74.858,0a33.707,33.707,0,0,0-12.9,12.159l-2.589-3.433v12.96h0c0,7.795,5.192,15.591,15.49,21.525,20.681,11.941,54.191,11.941,74.858,0,10.312-5.948,15.476-13.729,15.5-21.525h0Z" class="D"/><ellipse cx="652.889" cy="530.422" rx="52.926" ry="30.557" class="C"/><path d="M690.7 531.732c-.523 5.163-4.189 10.181-11.01 14.165-14.8 8.538-38.8 8.538-53.595 0-6.835-3.927-10.515-9-11.024-14.165-.639-6.022 3.055-12.174 11.024-16.785 14.792-8.537 38.79-8.537 53.595 0 7.974 4.567 11.654 10.763 11.01 16.785z" class="B"/><path d="M690.7 531.732c-.523 5.163-4.189 10.181-11.01 14.165-14.8 8.538-38.8 8.538-53.595 0-6.835-3.927-10.515-9-11.024-14.165.509-5.147 4.189-10.181 11.024-14.152 14.792-8.551 38.79-8.551 53.595 0 6.825 3.927 10.491 9.003 11.01 14.152z" class="E"/><path d="M667.71 536.266a28.258 28.258 0 0 0 2.692-1.92 10.813 10.813 0 0 0 1.8-1.858 3.8 3.8 0 0 0 .8-1.862 2.9 2.9 0 0 0-.509-1.832 6.945 6.945 0 0 0-1.92-1.877 10.647 10.647 0 0 0-5.41-2.021 14.249 14.249 0 0 0-5.818.858q1.455-2.693-2.633-4.64a10.2 10.2 0 0 0-3.112-.931 11.037 11.037 0 0 0-3.316 0 18.62 18.62 0 0 0-3.272.815 30.159 30.159 0 0 0-3.359 1.455l-4.592-2.647.4-.159h-.466l-.349-.2-.349.2h-2.909v1.644l5.061 2.909-2.472 1.454-5.12-2.909-.8.466-2.386-.276v1.643l5.222 3.009-1.993 1.164-1.821 1.047-2.589-.158v1.638l3.405 1.949 2.283-1.324a3.592 3.592 0 0 1 3.258-.247l5.92 3.418.349-.174-.335.189 8.3 4.8c.582.465.539.887-.1 1.28l-2.327-.29v1.642l3.142 2.545 4.13-2.385 1.149-.655 1.12-.64 5.279 3.055 3.185-1.848v-1.628l-1.454.815-3.781-2.182 2.545-1.454 5.178 3 3.185-1.833v-1.644h-2.836zm-17.919-5.818l-.959.554-.728.407-6.341-3.665.8-.479 1.091-.655 1.251-.669 1.454-.64a14.148 14.148 0 0 1 1.455-.451 6.521 6.521 0 0 1 1.57-.247 6.769 6.769 0 0 1 1.455.146 4.671 4.671 0 0 1 1.454.538 3.208 3.208 0 0 1 .871.728 1.048 1.048 0 0 1 .233.771 2.72 2.72 0 0 1-.2.771 2.559 2.559 0 0 1-.625.8q-.45.436-.829.742a10.553 10.553 0 0 1-1.029.728zm14.864 1.993a4.081 4.081 0 0 1-.554.829 5.9 5.9 0 0 1-.858.829 11.88 11.88 0 0 1-1 .771c-.291.219-.669.466-1.12.756l-1.061.64-1 .567-.771.436-7-4.028.959-.582 1.309-.786 1.455-.785 1.716-.771 1.731-.567a9.3 9.3 0 0 1 1.821-.317 6.956 6.956 0 0 1 1.716.117 4.9 4.9 0 0 1 1.644.582 2.885 2.885 0 0 1 .858.712 1.811 1.811 0 0 1 .317.771 1.464 1.464 0 0 1-.158.888z" class="B"/><path d="M665.164 523.267a13.778 13.778 0 0 0-5.82.856q1.455-2.692-2.632-4.654a10.558 10.558 0 0 0-3.112-.931 12.111 12.111 0 0 0-3.316 0 18.592 18.592 0 0 0-3.272.815 33.28 33.28 0 0 0-3.36 1.454l-5.206-3-3.185 1.833 5.061 2.909-2.472 1.454-5.12-2.908-3.185 1.833 5.222 3.008-1.993 1.178-4.364 2.516 3.405 1.964 2.283-1.338a3.636 3.636 0 0 1 3.258-.247l5.934 3.432a2.109 2.109 0 0 1 .35-.189l-.335.2 8.3 4.8c.6.465.554.9-.131 1.294l-2.3 1.324 3.142 2.56 4.131-2.386 1.148-.655 1.12-.639L664 542.8l3.185-1.833-5.206-3.008 2.545-1.455 5.178 3 3.185-1.847-5.265-3.039a25.868 25.868 0 0 0 2.692-1.92 10.328 10.328 0 0 0 1.8-1.862 3.755 3.755 0 0 0 .8-1.847 2.909 2.909 0 0 0-.51-1.833 6.763 6.763 0 0 0-1.92-1.89 10.609 10.609 0 0 0-5.32-1.999zm-23.459 2.909l.8-.48 1.091-.655c.291-.174.713-.4 1.251-.654l1.455-.64a13.886 13.886 0 0 1 1.454-.466 6.42 6.42 0 0 1 1.571-.232 6.691 6.691 0 0 1 1.454.13 4.7 4.7 0 0 1 1.455.555 3.181 3.181 0 0 1 .871.712 1.091 1.091 0 0 1 .232.786 2.656 2.656 0 0 1-.2.756 2.561 2.561 0 0 1-.626.8l-.829.756a10.889 10.889 0 0 1-1.029.713l-.989.625-.959.555-.728.407-6.341-3.665zm22.775 3.112a1.746 1.746 0 0 1 .317.771 1.588 1.588 0 0 1-.2.829 4.436 4.436 0 0 1-.555.815 5.9 5.9 0 0 1-.858.829q-.539.45-1 .785a14.57 14.57 0 0 1-1.119.742l-1.062.655-1 .567-.771.436-7-4.043.96-.567 1.308-.785 1.455-.786a16.486 16.486 0 0 1 1.716-.785 17.255 17.255 0 0 1 1.731-.554 8.212 8.212 0 0 1 1.821-.317 6.962 6.962 0 0 1 1.717.1 4.934 4.934 0 0 1 1.643.582 2.916 2.916 0 0 1 .961.712z" class="G"/><path d="M703.11,524.386v-13.6l-2.2,4.9c-2.429-4.712-6.865-9.162-13.309-12.871-20.664-11.941-54.176-11.941-74.858,0a33.693,33.693,0,0,0-12.9,12.145l-2.6-3.432V524.5h0c0,7.795,5.192,15.576,15.49,21.526,20.681,11.941,54.191,11.941,74.858,0,10.3-5.95,15.475-13.731,15.507-21.528h0Z" class="D"/><ellipse cx="650.169" cy="511.268" rx="52.926" ry="30.557" class="C"/><path d="M687.984 512.576c-.524 5.147-4.189 10.181-11.024 14.166-14.792 8.537-38.79 8.537-53.581 0-6.836-3.941-10.515-9.017-11.039-14.166-.626-6.036 3.054-12.188 11.039-16.784 14.791-8.551 38.79-8.551 53.581 0 7.984 4.596 11.664 10.749 11.024 16.784z" class="B"/><path d="M687.985 512.576c-.524 5.147-4.189 10.181-11.025 14.166-14.791 8.537-38.789 8.537-53.58 0-6.836-3.941-10.515-9.017-11.039-14.166.523-5.146 4.2-10.181 11.039-14.151 14.791-8.551 38.789-8.551 53.58 0 6.84 3.927 10.501 9.003 11.025 14.151z" class="E"/><path d="M664.989 517.1a30.341 30.341 0 0 0 2.692-1.9 10.343 10.343 0 0 0 1.8-1.877 3.755 3.755 0 0 0 .8-1.847 3 3 0 0 0-.51-1.833 6.573 6.573 0 0 0-1.919-1.876 10.51 10.51 0 0 0-5.353-2.021 13.986 13.986 0 0 0-5.744.858c1-1.79.13-3.345-2.633-4.64a10.188 10.188 0 0 0-3.112-.931 11.514 11.514 0 0 0-3.316 0 19.892 19.892 0 0 0-3.272.815 28.53 28.53 0 0 0-3.36 1.454l-4.592-2.692.4-.145h-.655l-.349-.2-.349.2h-2.836v1.6l5.062 2.909-2.487 1.454-5.1-2.909-.815.48-2.37-.276v1.643l5.221 3.009-1.993 1.164-1.821 1.047-2.589-.158v1.628l3.389 1.964 2.3-1.324a3.562 3.562 0 0 1 3.246-.262l5.934 3.432a2.7 2.7 0 0 1 .364-.174l-.335.189 8.3 4.8c.582.45.539.871-.1 1.267l-2.327-.277v1.629l3.142 2.56 4.13-2.386 1.149-.655 1.12-.639 5.279 3.039 3.185-1.833v-1.643l-1.454.829-3.782-2.2 2.534-1.454 5.192 3 3.185-1.833v-1.644h-2.84zm-17.918-5.818l-.96.554-.727.407-6.4-3.607.8-.466 1.091-.669c.29-.174.712-.4 1.251-.654l1.454-.64a12.967 12.967 0 0 1 1.455-.466 7.305 7.305 0 0 1 1.57-.232 6.833 6.833 0 0 1 1.455.13 4.719 4.719 0 0 1 1.454.554 3.2 3.2 0 0 1 .871.713 1.109 1.109 0 0 1 .233.785 2.9 2.9 0 0 1-.2.772 2.712 2.712 0 0 1-.625.8l-.843.742a10.281 10.281 0 0 1-1.018.728zm14.864 2.007a4.8 4.8 0 0 1-.554.815 6.861 6.861 0 0 1-.859.829 11.655 11.655 0 0 1-1 .785l-1.12.742-1.062.655-1 .567-.785.436-6.982-4.029.96-.582 1.309-.785 1.454-.785a17.6 17.6 0 0 1 1.717-.771 15.9 15.9 0 0 1 1.73-.567 8.1 8.1 0 0 1 1.821-.317 7.714 7.714 0 0 1 1.717.1 5.053 5.053 0 0 1 1.628.582 2.6 2.6 0 0 1 .859.728 1.7 1.7 0 0 1 .334.771 1.459 1.459 0 0 1-.158.887z" class="B"/><path d="M662.5 504.1a14.226 14.226 0 0 0-5.744.858q1.454-2.692-2.633-4.64a10.188 10.188 0 0 0-3.112-.931 11.586 11.586 0 0 0-3.316 0 18.6 18.6 0 0 0-3.272.815 30.823 30.823 0 0 0-3.36 1.454l-5.206-3.008-3.185 1.847 5.064 2.906-2.487 1.455-5.105-2.909-3.185 1.833 5.221 3.008-1.993 1.164-4.363 2.534 3.389 1.949 2.3-1.324a3.61 3.61 0 0 1 3.246-.247l5.934 3.418.363-.174-.335.189 8.305 4.8c.6.465.554.9-.146 1.309l-2.283 1.323 3.141 2.546 4.131-2.386 1.149-.64 1.119-.639 5.28 3.039 3.183-1.849-5.25-3 2.533-1.454 5.192 3 3.186-1.833-5.261-3.04a27.337 27.337 0 0 0 2.692-1.92 10.767 10.767 0 0 0 1.8-1.861 3.8 3.8 0 0 0 .8-1.861 3.048 3.048 0 0 0-.509-1.833 6.945 6.945 0 0 0-1.92-1.877 10.784 10.784 0 0 0-5.352-2.021zm-23.46 2.909l.8-.48 1.091-.655 1.251-.669a14.033 14.033 0 0 1 1.454-.64 13.237 13.237 0 0 1 1.455-.451 7.265 7.265 0 0 1 1.571-.247 6.835 6.835 0 0 1 1.454.146 4.685 4.685 0 0 1 1.455.538 3.2 3.2 0 0 1 .87.727 1.04 1.04 0 0 1 .233.771 2.746 2.746 0 0 1-.2.771 2.555 2.555 0 0 1-.626.8l-.843.742a8.281 8.281 0 0 1-1.018.726l-.989.626-.96.554-.726.407-6.327-3.665zm22.762 3.112a1.325 1.325 0 0 1 .131 1.6 5.365 5.365 0 0 1-.555.815 6.786 6.786 0 0 1-.858.829 11.518 11.518 0 0 1-1 .785l-1.119.742-1.062.655-1 .566-.785.437-6.982-4.044.96-.582 1.309-.771 1.454-.8a17.968 17.968 0 0 1 1.716-.772l1.731-.566a9.009 9.009 0 0 1 1.821-.317 7.779 7.779 0 0 1 1.717.116 4.749 4.749 0 0 1 1.628.582 2.436 2.436 0 0 1 .9.727z" class="G"/><path d="M708.259,505.61V491.88l-2.2,4.9c-2.429-4.712-6.865-9.163-13.307-12.886-20.664-11.926-54.177-11.926-74.859,0A33.8,33.8,0,0,0,605,496.054l-2.6-3.432V505.6h0c0,7.795,5.193,15.576,15.49,21.525,20.664,11.941,54.192,11.941,74.859,0,10.3-5.948,15.475-13.729,15.5-21.525h0Z" class="D"/><ellipse cx="655.318" cy="492.491" rx="52.926" ry="30.557" class="C"/><path d="M693.132 493.8c-.524 5.147-4.189 10.181-11.024 14.152-14.792 8.551-38.79 8.551-53.581 0-6.836-3.927-10.515-9-11.039-14.152-.626-6.036 3.054-12.188 11.039-16.784 14.791-8.551 38.789-8.551 53.581 0 7.985 4.596 11.665 10.749 11.024 16.784z" class="B"/><path d="M693.133 493.8c-.523 5.147-4.189 10.181-11.024 14.152-14.791 8.551-38.789 8.551-53.581 0-6.835-3.927-10.515-9-11.039-14.152.524-5.146 4.2-10.181 11.039-14.165 14.792-8.538 38.79-8.538 53.581 0 6.836 3.941 10.5 9.017 11.024 14.165z" class="E"/><path d="M211.7,645.714V551.046L66.992,534.757V630.05h0c-.116,2.909,1.571,5.672,5.147,7.752l67.805,39.139c7.68,4.45,21.118,3.879,29.99-1.236l34.426-19.867c5-2.909,7.491-6.6,7.4-10.094Z" class="I"/><path d="M211.677 561.387v-10.372h-11.14l-61.871-35.676c-7.68-4.434-21.1-3.88-29.99 1.236l-34.382 19.868a23.33 23.33 0 0 0-1.775 1.164l-5.527-2.913v11.29h0c0 2.909 1.6 5.672 5.163 7.723l67.805 39.153c7.68 4.363 21.118 3.879 29.99-1.251l34.427-19.736c5.146-2.909 7.621-6.821 7.272-10.355z" fill="#edf0f9"/><path d="M139.946 581.632l-67.805-39.138c-7.68-4.45-6.719-12.187 2.153-17.322L108.72 505.3c8.886-5.119 22.311-5.687 29.99-1.251l67.8 39.153c7.694 4.363 6.72 12.188-2.153 17.322l-34.426 19.9c-8.867 5.135-22.306 5.644-29.985 1.208z" fill="#e2e5f2"/><g class="N"><path d="M174.78,546.1h0a3.332,3.332,0,0,1-1.716,2.908l-31.242,18.079a3.329,3.329,0,0,1-3.33,0L94.859,541.768a3.344,3.344,0,0,1-1.672-2.91v-.174Z"/><path d="M173.063 549.067l-31.241 18.02a3.342 3.342 0 0 1-1.7.422V546.1h34.616a3.33 3.33 0 0 1-1.675 2.967z"/></g><path d="M141.4,565.343a2.338,2.338,0,0,1-2.385,0L93.579,539.137a.654.654,0,0,1-.422-.8.612.612,0,0,1,.422-.422l33.451-19.346L174.75,546.1Z" class="O"/><path d="M112.239,546.116l.247.131,14.574,8.435,8-4.625.219-.13-14.806-8.567Z" fill="#bfbfbf"/><path d="M112.486,546.247l14.574,8.435,8-4.625-14.585-8.421Z" class="N"/><g fill="#2b303f"><path d="M162.126 547.774l2.05 1.294a.77.77 0 0 0 .669 0l1.993-1.164c.219-.116.233-.276 0-.378l-2.094-1.222a.776.776 0 0 0-.669 0l-1.993 1.164c-.145.117-.145.204.044.306zm-2.982-1.674l2.109 1.221a.77.77 0 0 0 .669 0l2.007-1.163c.2-.117.219-.291 0-.379l-2.109-1.221a.769.769 0 0 0-.669 0l-1.993 1.163c-.13.074-.13.234-.014.379zm-3.025-1.758l2.109 1.207a.714.714 0 0 0 .683 0l1.989-1.149c.189-.116.219-.29 0-.378l-2.051-1.237a.682.682 0 0 0-.669 0l-2.066 1.164a.276.276 0 0 0 0 .391zm-2.909-1.717l2.094 1.208a.714.714 0 0 0 .683 0l2.007-1.149c.19-.117.219-.291 0-.4l-2.109-1.208a.686.686 0 0 0-.669 0l-1.993 1.149c-.173.124-.187.299-.013.4zm-2.998-1.716l2.109 1.207a.77.77 0 0 0 .669 0l2.01-1.149c.189-.116.218-.29 0-.4l-2.109-1.207a.739.739 0 0 0-.655 0l-2.021 1.166a.218.218 0 0 0-.08.3.227.227 0 0 0 .077.083zm-2.965-1.716l2.1 1.207a.77.77 0 0 0 .669 0l2.01-1.149c.2-.117.233-.306 0-.407l-2.1-1.211a.77.77 0 0 0-.669 0l-2.008 1.164a.219.219 0 0 0-.1.291.223.223 0 0 0 .098.105zm-2.981-1.717l2.153 1.222a.737.737 0 0 0 .654 0l2.022-1.164c.189-.1.218-.29 0-.4l-2.11-1.207a.737.737 0 0 0-.654 0l-2.022 1.149c-.189.138-.215.298-.043.4zm-2.982-1.73l2.109 1.207a.77.77 0 0 0 .669 0l2.007-1.164c.19-.116.219-.29 0-.4l-2.094-1.207a.77.77 0 0 0-.669 0l-2.021 1.149c-.147.182-.175.313-.001.415zm-2.967-1.687l2.094 1.221a.77.77 0 0 0 .669 0l2.022-1.167c.189-.116.218-.29 0-.4l-2.109-1.207a.77.77 0 0 0-.669 0l-2.007 1.149c-.2 0-.363 0-.363.2s.162.366.363.204zm-2.982-1.759l2.109 1.221a.77.77 0 0 0 .669 0l2.007-1.164c.189-.116.2-.276 0-.378l-2.109-1.208a.66.66 0 0 0-.655 0l-2.021 1.149c-.142.117-.174.291 0 .38zm-2.967-1.718l2.1 1.222a.776.776 0 0 0 .669 0l2.007-1.164c.2-.117.218-.277 0-.379l-2.1-1.221a.77.77 0 0 0-.669 0l-2.007 1.164c-.16.117-.188.291 0 .378zm-2.981-1.716l2.109 1.222a.739.739 0 0 0 .655 0l2.007-1.164c.2-.116.218-.276 0-.378l-2.109-1.222a.8.8 0 0 0-.684 0l-1.993 1.164c-.131.112-.159.277.015.378zm-2.987-1.716l2.109 1.222a.776.776 0 0 0 .669 0l1.993-1.164c.2-.117.219-.277 0-.379l-2.094-1.221a.794.794 0 0 0-.683 0l-2.007 1.163a.219.219 0 0 0 .014.379zm-4.4-2.55l3.578 2.051a.77.77 0 0 0 .669 0l2.007-1.164c.2-.116.219-.291 0-.378l-3.548-2.051a.739.739 0 0 0-.655 0l-2.021 1.164c-.177.121-.206.278-.03.378zm32.825 22.287l2.094 1.222a.8.8 0 0 0 .684 0l2.007-1.178c.189-.1.218-.277 0-.379l-2.037-1.222a.776.776 0 0 0-.669 0l-1.993 1.164c-.246.131-.246.306-.086.393zm-2.982-1.716l2.11 1.207a.681.681 0 0 0 .669 0l2.007-1.149c.189-.116.218-.276 0-.378l-2.108-1.222a.746.746 0 0 0-.655 0l-2.021 1.149c-.089.13-.174.29-.002.393zm-2.995-1.715l2.109 1.207a.681.681 0 0 0 .669 0l1.993-1.149c.218-.116.232-.29 0-.4l-2.11-1.207a.681.681 0 0 0-.669 0l-1.992 1.149a.218.218 0 0 0 0 .4zm-2.91-1.718l2.109 1.207a.739.739 0 0 0 .655 0l2.021-1.164c.189-.1.219-.276 0-.4l-2.065-1.207a.77.77 0 0 0-.669 0l-2.051 1.149c-.204.124-.233.343 0 .415zm-3.025-1.716l2.109 1.207a.708.708 0 0 0 .683 0l1.993-1.149c.189-.116.218-.29 0-.4l-2.094-1.267a.681.681 0 0 0-.669 0l-2.01 1.152c-.159.181-.172.311-.012.457zm-2.967-1.716l2.094 1.208a.686.686 0 0 0 .669 0l2.022-1.149c.189-.117.2-.306 0-.4l-2.11-1.207a.681.681 0 0 0-.669 0l-2.007 1.148c-.145.123-.173.294.001.4zm-2.996-1.717l2.109 1.2a.8.8 0 0 0 .683 0l1.993-1.149c.2-.116.218-.3 0-.407l-2.11-1.207a.737.737 0 0 0-.654 0l-2.007 1.164a.218.218 0 0 0-.117.286.223.223 0 0 0 .1.11z"/><path d="M133.983 534.844l2.094 1.222a.686.686 0 0 0 .669 0l2.007-1.149c.2-.117.233-.291 0-.4l-2.094-1.207a.681.681 0 0 0-.669 0l-2.007 1.148c-.16.124-.189.299 0 .386zM131 533.127l2.109 1.222a.739.739 0 0 0 .655 0l2.007-1.164c.2-.116.218-.276 0-.378l-2.11-1.208a.714.714 0 0 0-.683 0l-1.993 1.149c-.145.117-.158.277.015.379zm-2.995-1.715l2.109 1.221a.77.77 0 0 0 .669 0l2.007-1.163c.19-.117.219-.291 0-.379l-2.05-1.28a.77.77 0 0 0-.669 0l-2.022 1.178c-.189.161-.204.311-.044.423zm-2.966-1.712l2.094 1.222a.77.77 0 0 0 .669 0l2.022-1.178c.189-.1.2-.276 0-.379l-2.109-1.221a.77.77 0 0 0-.669 0l-2.008 1.164c-.145.111-.174.285.001.392zm-2.996-1.735l2.109 1.221a.8.8 0 0 0 .683 0l1.993-1.164c.2-.116.218-.276 0-.378l-2.109-1.222a.746.746 0 0 0-.655 0l-2.007 1.164c-.157.114-.174.291-.014.379zm35.764 20.635l3.548 2.05a.881.881 0 0 0 .669 0l1.993-1.163c.2-.116.219-.29 0-.4l-3.535-2.033a.89.89 0 0 0-.669 0l-2.023 1.178a.219.219 0 0 0-.049.3.221.221 0 0 0 .063.059zm-35.995-23.908l2.094 1.222c.174.087.174.247 0 .349l-2.123 1.236a.784.784 0 0 1-.626 0l-.158-.116a.682.682 0 0 0-.582 0l-2.225 1.308a.684.684 0 0 1-.626 0l-1.352-.771a.2.2 0 0 1-.089-.274h0a.127.127 0 0 1 .087-.087l2.094-1.208.422-.247.317-.189.316-.189 1.8-1.029a.684.684 0 0 1 .64 0zm28.766 29.728l2.094 1.222a.77.77 0 0 0 .669 0l2.007-1.162c.2-.117.233-.291 0-.4l-2.137-1.207a.881.881 0 0 0-.669 0l-2.007 1.178a.2.2 0 0 0 .043.363zm-2.967-1.702l2.109 1.222a.746.746 0 0 0 .655 0l2.007-1.164c.2-.116.218-.291 0-.378l-2.08-1.222a.8.8 0 0 0-.683 0l-1.993 1.164c-.233.117-.233.277-.015.378zM144.629 551l2.109 1.208a.687.687 0 0 0 .669 0l2.007-1.149c.2-.116.233-.276 0-.378l-2.021-1.222a.77.77 0 0 0-.669 0l-2.022 1.161c-.218.12-.218.295-.073.38zm-25.263-14.6l2.094 1.222a.77.77 0 0 0 .669 0l2.007-1.178c.2-.1.218-.276 0-.378l-2.109-1.222a.8.8 0 0 0-.684 0l-1.992 1.164c-.131.13-.159.305.015.392zm-2.981-1.7l2.109 1.222a.77.77 0 0 0 .669 0l2.007-1.164c.189-.116.219-.291 0-.4l-2.094-1.221a.881.881 0 0 0-.669 0l-2.022 1.185a.218.218 0 0 0 0 .378zm-2.953-1.718l2.094 1.221a.77.77 0 0 0 .669 0l2.007-1.163c.2-.117.218-.291 0-.379l-2.109-1.222a.8.8 0 0 0-.684 0l-1.992 1.164c-.131.175-.16.277.015.379zm-2.981-1.687l2.109 1.221a.77.77 0 0 0 .669 0l2.007-1.164c.189-.116.219-.276 0-.378l-2.109-1.28a.739.739 0 0 0-.655 0l-2.021 1.164a.267.267 0 0 0 0 .437zm30.455 17.555l2.908 1.687a.683.683 0 0 0 .67 0l2.007-1.164c.2-.1.218-.276 0-.378l-2.909-1.658a.77.77 0 0 0-.669 0l-2.007 1.164a.189.189 0 0 0 0 .349zm-18.573-10.734l2.909 1.658a.681.681 0 0 0 .669 0l2.007-1.149c.189-.116.2-.29 0-.378l-2.909-1.658a.681.681 0 0 0-.669 0l-2.007 1.149c-.16.116-.174.277 0 .378z"/><path d="M126.056 540.283l14.064 8.076a.77.77 0 0 0 .669 0l1.993-1.164c.2-.116.219-.291 0-.378l-13.934-8.117a.746.746 0 0 0-.655 0l-2.007 1.178c-.276.129-.286.303-.13.405zm25.074 7.796l2.109 1.222a.681.681 0 0 0 .669 0l2.007-1.149c.19-.116.2-.29 0-.4l-2.094-1.236a.686.686 0 0 0-.669 0l-2.021 1.149c-.146.152-.175.327-.001.414zm-2.965-1.716l2.094 1.222a.777.777 0 0 0 .669 0l2.022-1.179c.189-.1.218-.276 0-.378l-2.093-1.222a.686.686 0 0 0-.669 0l-2.007 1.149c-.162.145-.192.324-.016.408zm-2.983-1.745l2.109 1.222a.746.746 0 0 0 .655 0l2.021-1.222c.189-.1.219-.276 0-.379l-2.08-1.091a.655.655 0 0 0-.655 0l-2.021 1.091c-.174.146-.203.379-.029.379zm-2.967-1.687l2.094 1.221a.769.769 0 0 0 .669 0l2.007-1.178c.2-.1.233-.276 0-.378l-2.05-1.267a.77.77 0 0 0-.669 0l-2.007 1.164c-.205.176-.219.292-.044.438zm-2.981-1.703l2.094 1.222a.927.927 0 0 0 .683 0l2.007-1.178c.2-.1.218-.276 0-.378l-2.051-1.251a.77.77 0 0 0-.669 0l-1.992 1.164c-.218.145-.291.32-.072.421zm-2.968-1.715l2.109 1.221a.881.881 0 0 0 .669 0l1.993-1.178c.2-.1.219-.276 0-.378l-2.021-1.251a.927.927 0 0 0-.683 0l-2.008 1.164c-.277.145-.277.32-.059.422zM133.3 537.8l2.1 1.222a.89.89 0 0 0 .669 0l2.007-1.163c.2-.116.218-.291 0-.4l-2.022-1.251a.926.926 0 0 0-.683 0l-1.993 1.178c-.278.134-.278.308-.078.414zm-2.982-1.719l2.109 1.207a.681.681 0 0 0 .669 0l2.007-1.149c.189-.116.2-.29 0-.4l-2.007-1.251a.89.89 0 0 0-.669 0l-2.021 1.164c-.275.094-.275.327-.088.429zm-2.964-1.718l2.094 1.208a.77.77 0 0 0 .669 0l2.008-1.149c.2-.116.232-.291 0-.407l-2-1.237a.77.77 0 0 0-.669 0l-2.007 1.164c-.287.117-.287.32-.095.421zm-2.985-1.763l2.109 1.208a.746.746 0 0 0 .655 0l2.021-1.149c.189-.117.218-.291 0-.4l-1.993-1.12a.746.746 0 0 0-.655 0l-2.021 1.164c-.276.053-.276.297-.116.297zm-2.981-1.669l2.109 1.208a.8.8 0 0 0 .683 0l1.993-1.149c.189-.117.219-.306 0-.4l-2.051-1.207a.769.769 0 0 0-.669 0l-2.007 1.163a.219.219 0 0 0-.129.281.213.213 0 0 0 .072.1zm-2.968-1.716l2.1 1.207a.714.714 0 0 0 .683 0l2.007-1.149c.2-.116.218-.3 0-.4l-2.11-1.203a.77.77 0 0 0-.669 0l-1.993 1.164a.218.218 0 0 0-.092.3.214.214 0 0 0 .078.083zm35.692 20.594l4.363 2.516a.794.794 0 0 0 .683 0l1.993-1.163c.2-.117.233-.291 0-.379l-4.363-2.544a.708.708 0 0 0-.683 0l-1.993 1.148c-.16.146-.174.321 0 .422zm-4.378.728l2.094 1.222a.776.776 0 0 0 .669 0l1.993-1.164c.219-.117.233-.291 0-.4l-2.036-1.135a.8.8 0 0 0-.683 0l-1.993 1.149c-.219.124-.233.328-.044.328zm-2.981-1.644l2.094 1.164a.845.845 0 0 0 .655 0l2.021-1.164c.189-.116.2-.29 0-.4l-2.109-1.207a.681.681 0 0 0-.669 0l-2.007 1.151c-.131.163-.16.354.015.456zm-2.982-1.745l2.109 1.222a.89.89 0 0 0 .669 0l2.007-1.178c.189-.1.233-.276 0-.379l-2.094-1.119a.682.682 0 0 0-.669 0l-2.022 1.148c-.142.058-.171.306 0 .306zm-2.971-1.687l2.094 1.222a.89.89 0 0 0 .669 0l2.022-1.163c.189-.117.218-.291 0-.4l-2.105-1.22a.89.89 0 0 0-.669 0l-2.007 1.185a.219.219 0 0 0-.08.3.227.227 0 0 0 .08.08z"/><path d="M137.823 543.745l2.109 1.221a.8.8 0 0 0 .683 0l1.993-1.164c.189-.116.218-.29 0-.4l-2.124-1.251a.834.834 0 0 0-.654 0l-2.007 1.185c-.148.132-.16.307 0 .409zm-2.968-1.716l2.109 1.222a.776.776 0 0 0 .669 0l1.993-1.164c.219-.117.233-.291 0-.379l-2.094-1.251a.777.777 0 0 0-.669 0l-1.993 1.178c-.17.118-.189.293-.015.394zm-2.966-1.717l2.111 1.222a.739.739 0 0 0 .655 0l2.007-1.164c.2-.116.218-.29 0-.378l-2.1-1.295a.8.8 0 0 0-.683 0l-1.993 1.178c-.143.161-.172.307.003.437zm-2.982-1.717l2.109 1.208a.686.686 0 0 0 .669 0l2.007-1.149c.189-.117.219-.291 0-.379l-2.08-1.308a.77.77 0 0 0-.669 0l-2.007 1.163c-.174.205-.203.365-.029.465zm-2.968-1.715l2.095 1.207a.686.686 0 0 0 .669 0l2.021-1.149c.189-.116.218-.29 0-.378l-2.08-1.251a.681.681 0 0 0-.669 0l-2.007 1.149c-.173.16-.2.32-.029.422zm-2.98-1.716l2.109 1.207a.681.681 0 0 0 .669 0l2.007-1.149c.189-.116.218-.29 0-.395l-2.051-1.236a.681.681 0 0 0-.669 0l-2.007 1.148c-.204.161-.217.323-.058.425zm-2.968-1.717l2.094 1.208a.716.716 0 0 0 .684 0l1.992-1.149c.219-.116.233-.276 0-.4l-2.094-1.236a.681.681 0 0 0-.669 0L120 533.025c-.155.146-.242.321-.009.422zm-6.646-3.839l5.817 3.331a.655.655 0 0 0 .655 0l2.007-1.149c.2-.116.219-.29 0-.4l-5.818-3.345a.89.89 0 0 0-.669 0l-2.007 1.185a.2.2 0 0 0-.105.268.207.207 0 0 0 .12.11zm39.342 22.72l2.909 1.658a.77.77 0 0 0 .669 0l2.007-1.164c.189-.117.218-.276 0-.379l-2.909-1.657a.655.655 0 0 0-.655 0l-2.007 1.146a.219.219 0 0 0-.014.4z"/></g><g class="N"><path d="M174.78 546.1h0l-47.749-27.53v-37.54l.379-.828.378-.2h0a3.346 3.346 0 0 1 3.3 0l43.632 25.177a3.288 3.288 0 0 1 1.644 2.909V543.3c-.232 1.794-.564 2.219-1.584 2.8z"/><path d="M170.4,509.755,127.031,482.3v-1.267l.379-.829.378-.2a3.351,3.351,0,0,1,3.3,0l43.632,25.178a3.338,3.338,0,0,1,1.251,1.294Z"/></g><use xlink:href="#E" fill="#dceeff"/><use xlink:href="#E" class="O"/><path d="M174.78,546.116v-1.352L127.061,517.2v1.367Z" fill="#dbdbdb"/><path d="M128.878,482.5v33.786l44.361,25.54V508.112Z" fill="#1e212d"/><path d="M49.685,513c-.407,3.547-4.64,18.907-3.723,24.053s15.344,13.992,15.344,13.992l1.993-8.887-8-7.9,2.167-14.748Z" class="P"/><path d="M60.856,497.946a6.313,6.313,0,0,0-8,2.429c-2.126,3.519-4.366,15.591-4.526,17.6,0,0,2.909,4.117,7.4,3.432Z" fill="#ededed"/><path d="M77.334 668.33a12.379 12.379 0 0 0 9.338-1.149c2.254 0 14.544-5.146 16.144-.756 1.454 3.84-3.84 7.4-6.661 8.087-6.181 1.454-10.733 4.581-13.222 5.1-1.847.378-4.232.625-5.7-.815-1.775-1.741-1.615-8.169.101-10.467z" fill="#38226d"/><path d="M82.933,678.54c2.487-.509,7.04-3.592,13.222-5.091,2.371-.582,6.443-3.167,6.85-6.268.554,3.563-4.217,6.7-6.85,7.272-6.181,1.454-10.733,4.582-13.222,5.091-1.847.4-4.232.64-5.7-.8a3.462,3.462,0,0,1-.816-1.453,7.415,7.415,0,0,0,6.516,1.251Z" fill="#9c73ff"/><path d="M57.583 659.43a12.478 12.478 0 0 0 9.352-1.135c2.239.073 14.457-5.163 16.115-.771 1.454 3.84-3.84 7.4-6.661 8.1-6.152 1.455-10.734 4.567-13.206 5.091-1.848.379-4.233.64-5.716-.815-1.819-1.729-1.702-8.173.116-10.47z" fill="#38226d"/><path d="M63.124,669.639c2.473-.509,7.039-3.592,13.206-5.091,2.371-.566,6.458-3.166,6.865-6.254.554,3.548-4.217,6.69-6.865,7.4-6.167,1.455-10.733,4.567-13.206,5.091-1.847.379-4.233.64-5.716-.814a3.593,3.593,0,0,1-.8-1.455,7.4,7.4,0,0,0,6.516,1.12Z" fill="#9c73ff"/><path d="M57.291 626.24a73.121 73.121 0 0 1 2.836-13.323s-.842-11.548-1.252-22.5c-.495-12.417-4.8-23.357-1.455-33.277l38.32 8.537-2.821 55.515a115.068 115.068 0 0 1-1.719 13.919c-1.742 9.6-4.592 32.477-4.592 32.477-4.058 2.356-9.381 1.047-9.381 1.047l.567-35.851c.305-8.45.567-7.81.567-7.81l-1.236-21.1-.825-10.491s-1.062 7.709-1.742 14.544c-.611 5.992-2.066 11.417-3.68 22.559-1.382 9.686-3.665 29.088-3.665 29.088-4.058 2.356-9.57.407-9.57.407s-1.443-25.35-.352-33.741z" class="J"/><path d="M62.891 498.147c2.909.146 5.09.9 5.439 0A34.284 34.284 0 0 0 69 493.6l-.625-1.76c-3.665-2.255-4.83-6.211-5.294-10.836-.829-7.883 3.432-14.806 11.329-15.606 7.4-.771 12.857 4.434 14.312 11.638.785 3.535 2.342 10.181.233 16-1.179 3.258-2.692 5.818-4.218 6.341a37.861 37.861 0 0 1-4.434-.4h0l-.674 3.6c-.262 1.455-.158 2.153 2.633 3.869s-4.233 5.265-8.886 4.93-9.756-3.127-11.165-6.1c-1.472-3.316-1.341-7.214.68-7.129z" class="P"/><path d="M67.11,498.587c-.815,2.022,1.235,4.434,6.733,6.211s5.92-.495,5.92-.495a108.28,108.28,0,0,1,10.661,5.483c3.287,2.312,4.756,8.886,5.192,20.2.509,13,.554,32.3.116,35.633,0,0-6.137,6.124-14.02,5.469s-21.1-7.606-24.319-12.974c.087-11.4,1.455-13.322-.407-19.838-4.246-15.039-6.457-21.191-4.45-31.183,1.687-8.246,4.058-9.263,7.272-9.177a64.244,64.244,0,0,1,7.3.669Z" class="O"/><path d="M108.022 540.749c-6.458 1.628-7.956-2.455-8.887-5.818-2.036-8.174-3.141-15.548-4.683-20.189-1.788-5.454-3.694-6.327-6.356-7.4-3.112-1.236-5.818 1.454-4.756 8.348a141.175 141.175 0 0 0 5.876 23.693c.814 2.545 2.618 7.068 5.308 9.25 3.331 2.692 8.348 2.574 16 .683 3.229-.8 6.777-2.735 12.915-5.6 1.644-.771 2.909-1.267 6.08-2.735a21.546 21.546 0 0 0 8.1-6.327c1.644-2.4 1.862-3.52 1.455-4.072s-1.179-.524-2.051.479a17.926 17.926 0 0 1-4.64 4.364s2.022-2.109 3.142-3.476a17.821 17.821 0 0 0 2.429-4c.582-1.454-.611-3.287-1.454-2.3s-1.368 2.021-2.909 4.014a17.182 17.182 0 0 1-2.909 2.909 33.443 33.443 0 0 0 2.763-4.45 7.276 7.276 0 0 0 1-4.014c0-.713-1.076-1.6-2.051-.2a26.681 26.681 0 0 1-3.475 5.3c-1.455 1.454-2.72 2.4-2.763 1.979s.9-1.28 1.454-3.054 0-3.665-.975-3.855-.8-.174-1.6 1.455a52.978 52.978 0 0 0-2.909 5.338 10.93 10.93 0 0 1-2.763 4.433c-1.684 1.813-5.19 3.689-11.341 5.245z" class="P"/><path d="M85.711 506.236c4.363-.64 7.4 1.3 9.263 7.825l3.226 11.853a11.638 11.638 0 0 1-7.272 4.785c-5.163 1.267-7.026-1.207-7.026-1.207l-2.326-11.505c-.872-4.669-1.086-10.965 4.135-11.751z" fill="#ededed"/><path d="M89.298 475.79s7.261-11.043-8.485-13.309c-11.354-1.551-18.613 5.693-19.5 13.6-.806 7.554 3.847 15.418 7.213 18.536 1.552.575 5.181.929 9.819-1.193a55.02 55.02 0 0 0 .216-6.2c0 0-5.534-11.636 10.737-11.434z" fill="#2c2a33"/><path d="M185.92,252.916l-5-1.158-1.1,5.017,5,1.158Zm11.073,7.853-1.885,8.621,5,1.158,2.983-13.638-13.6-3.148-1.1,5.017Zm2.352,13.37-5-1.159-1.1,5.017,5,1.159Zm-17.2-3.981,1.885-8.621-5-1.158-2.982,13.638,13.6,3.148,1.1-5.017Zm4.361-2.758,5,1.158,1.1-5.017-5-1.158Z" class="B"/><path d="M185.9,252.337l-5-1.158-1.1,5.017,5,1.158Zm11.073,7.853-1.886,8.621,5,1.158,2.982-13.638-13.6-3.148-1.1,5.017Zm2.351,13.369-5-1.158-1.1,5.017,5,1.159Zm-17.194-3.98,1.885-8.621-5-1.158-2.983,13.638,13.6,3.148,1.1-5.017Zm4.36-2.758,5,1.158,1.1-5.017-5-1.159Z" class="C"/><path d="M394.332,164.3l-6.254,4.882,4.958,6.2,6.254-4.882Zm20.193-5.662,8.519,10.644L429.3,164.4l-13.477-16.838-17,13.27,4.958,6.195Zm18.34,10.172-6.254,4.882,4.957,6.195L437.823,175Zm-21.494,16.778-8.52-10.644-6.254,4.882,13.477,16.838,17-13.271-4.958-6.194Zm.927-7.917,6.254-4.882-4.958-6.2-6.255,4.882Z" class="B"/><path d="M393.218,164.3l-6.254,4.882,4.958,6.2,6.254-4.882Zm20.193-5.662,8.52,10.644,6.254-4.882-13.477-16.838-17,13.27,4.958,6.195Zm18.34,10.172-6.254,4.882,4.958,6.195L436.709,175Zm-21.494,16.778-8.519-10.644-6.255,4.882L408.96,196.66l17-13.271L421,177.2Zm.927-7.917,6.254-4.882-4.958-6.2-6.254,4.882Z" class="C"/><path d="M668.347,226.6l-5.171-2.371-2.308,5.2,5.17,2.371Zm10.264,10.988-3.966,8.933,5.17,2.372,6.275-14.133-14.056-6.447-2.308,5.2Zm-.427,15.03-5.171-2.372-2.308,5.2,5.171,2.372Zm-17.77-8.15,3.967-8.934-5.171-2.372L652.936,247.3l14.055,6.447,2.308-5.2Zm5.346-2.021,5.171,2.371,2.308-5.2-5.171-2.372Z" class="B"/><path d="M668.707 225.663l-5.17-2.371-2.308 5.2 5.17 2.371zm10.265 10.988l-3.967 8.933 5.171 2.372 6.274-14.133-14.05-6.446-2.308 5.2zm-.428 15.03l-5.17-2.372-2.308 5.2 5.17 2.372zm-17.769-8.15l3.966-8.934-5.17-2.372-6.271 14.134 14.056 6.446 2.308-5.2zm5.346-2.021l5.17 2.371 2.309-5.2-5.171-2.372z" class="C"/><path d="M649.427,477.955l-6.117-.776-.7,6.126,6.117.777Zm14.179,8.037L662.4,496.518l6.117.777,1.907-16.653-16.628-2.11-.7,6.126Zm4.432,15.684-6.117-.776-.7,6.126,6.117.777Zm-21.022-2.667,1.206-10.527-6.118-.776L640.2,504.358l16.629,2.111.7-6.127Zm4.874-3.824,6.117.776.7-6.126-6.118-.777Z" class="B"/><path d="M648.623,477.476l-6.117-.776-.7,6.126,6.117.777Zm14.18,8.037L661.6,496.039l6.117.777,1.907-16.653-16.628-2.11-.7,6.126Zm4.432,15.684-6.117-.776-.7,6.126,6.117.777Zm-21.023-2.667L647.418,488l-6.117-.776-1.907,16.652,16.628,2.111.7-6.127Zm4.874-3.824,6.117.776.7-6.126-6.117-.777Z" class="C"/></g></g></svg>